<svg xmlns="http://www.w3.org/2000/svg" width="1125" height="675" viewBox="0 0 1125 675" role="img" aria-labelledby="title desc">
  <title id="title">Business card back option nine</title>
  <desc id="desc">Systems-style back with AS seal, subtle network geometry, and QR.</desc>
  <defs>
    <linearGradient id="paper" x1="0" y1="0" x2="1" y2="1">
      <stop offset="0" stop-color="#f7f3ea" />
      <stop offset="1" stop-color="#ece4d6" />
    </linearGradient>
    <linearGradient id="panel" x1="0" y1="0" x2="0" y2="1">
      <stop offset="0" stop-color="#fffdf8" />
      <stop offset="1" stop-color="#f4eee2" />
    </linearGradient>
    <pattern id="grain" width="10" height="10" patternUnits="userSpaceOnUse">
      <circle cx="2" cy="2" r="0.8" fill="#d7cfbf" />
      <circle cx="8" cy="6" r="0.7" fill="#d3cab9" />
      <circle cx="4" cy="9" r="0.55" fill="#d9d0bf" />
    </pattern>
    <style><![CDATA[
      .bleed { fill: url(#paper); }
      .grain { fill: url(#grain); opacity: 0.22; }
      .trim { fill: url(#panel); stroke: #26231f; stroke-width: 2; }
      .crop { stroke: #26231f; stroke-width: 2; }
      .frame { fill: none; stroke: #1f3c5d; stroke-width: 2.0; }
      .frame-soft { fill: none; stroke: #7d8b97; stroke-width: 1.1; stroke-dasharray: 4 6; }
      .signal { stroke: #1f3c5d; stroke-width: 1.7; fill: none; stroke-linecap: round; stroke-linejoin: round; }
      .signal-soft { stroke: #7d8b97; stroke-width: 1.2; fill: none; stroke-linecap: round; }
      .accent { fill: none; stroke: #a53a2e; stroke-width: 2.8; stroke-linecap: round; }
      .node { fill: #1f3c5d; }
      .node-soft { fill: #7d8b97; }
      .node-accent { fill: #a53a2e; }
      .grid { stroke: #d4ccbf; stroke-width: 0.9; fill: none; }
      .blue { fill: #1f3c5d; }
      .serif { font-family: "Cormorant Garamond", Georgia, serif; }
    ]]></style>
  </defs>
  <rect x="0" y="0" width="1125" height="675" class="bleed" />
  <rect x="0" y="0" width="1125" height="675" class="grain" />
  <line x1="18" y1="60" x2="70" y2="60" class="crop" />
  <line x1="42" y1="18" x2="42" y2="70" class="crop" />
  <line x1="1055" y1="60" x2="1107" y2="60" class="crop" />
  <line x1="1083" y1="18" x2="1083" y2="70" class="crop" />
  <line x1="18" y1="615" x2="70" y2="615" class="crop" />
  <line x1="42" y1="605" x2="42" y2="657" class="crop" />
  <line x1="1055" y1="615" x2="1107" y2="615" class="crop" />
  <line x1="1083" y1="605" x2="1083" y2="657" class="crop" />
  <rect x="37.5" y="37.5" width="1050" height="600" rx="14" class="trim" />

  <path d="M148 160 H998" class="grid" />
  <path d="M148 300 H998" class="grid" />
  <path d="M148 440 H998" class="grid" />
  <path d="M280 122 V554" class="grid" />
  <path d="M562 122 V554" class="grid" />
  <path d="M844 122 V554" class="grid" />

  <circle cx="214" cy="214" r="74" class="frame" />
  <circle cx="214" cy="214" r="56" class="frame-soft" />
  <text x="214" y="205" text-anchor="middle" class="serif blue" font-size="40" font-weight="700">A</text>
  <text x="214" y="244" text-anchor="middle" class="serif blue" font-size="40" font-weight="700">S</text>

  <path d="M292 214 H412 L500 160 H642" class="signal" />
  <path d="M412 214 L500 300 L622 300" class="signal-soft" />
  <path d="M500 160 L562 214 L688 214" class="signal" />
  <path d="M500 300 L562 440 L690 440" class="signal-soft" />
  <path d="M622 300 L736 214" class="signal" />
  <path d="M688 214 L736 214 L812 160" class="signal-soft" />
  <path d="M690 440 L780 440 L844 392" class="signal" />
  <path d="M812 160 L892 160 L946 214" class="signal-soft" />

  <circle cx="412" cy="214" r="6" class="node" />
  <circle cx="500" cy="160" r="6" class="node-accent" />
  <circle cx="500" cy="300" r="5" class="node-soft" />
  <circle cx="562" cy="214" r="6" class="node" />
  <circle cx="622" cy="300" r="5" class="node-soft" />
  <circle cx="688" cy="214" r="6" class="node" />
  <circle cx="690" cy="440" r="5" class="node-soft" />
  <circle cx="736" cy="214" r="6" class="node-accent" />
  <circle cx="812" cy="160" r="5" class="node-soft" />
  <circle cx="844" cy="392" r="6" class="node" />
  <circle cx="946" cy="214" r="6" class="node" />

  <rect x="776" y="326" width="208" height="208" rx="18" class="frame" />
  <rect x="790" y="340" width="180" height="180" rx="14" class="frame-soft" />
  <rect x="784" y="334" width="192" height="192" fill="#ffffff" />
  <svg x="802" y="352" width="156" height="156" viewBox="0 0 290 290" aria-hidden="true">
    <path style="fill:#26231f" d="M 0,0 l 10,0 0,10 -10,0 z M 10,0 l 10,0 0,10 -10,0 z M 20,0 l 10,0 0,10 -10,0 z M 30,0 l 10,0 0,10 -10,0 z M 40,0 l 10,0 0,10 -10,0 z M 50,0 l 10,0 0,10 -10,0 z M 60,0 l 10,0 0,10 -10,0 z M 100,0 l 10,0 0,10 -10,0 z M 120,0 l 10,0 0,10 -10,0 z M 130,0 l 10,0 0,10 -10,0 z M 140,0 l 10,0 0,10 -10,0 z M 150,0 l 10,0 0,10 -10,0 z M 180,0 l 10,0 0,10 -10,0 z M 190,0 l 10,0 0,10 -10,0 z M 200,0 l 10,0 0,10 -10,0 z M 220,0 l 10,0 0,10 -10,0 z M 230,0 l 10,0 0,10 -10,0 z M 240,0 l 10,0 0,10 -10,0 z M 250,0 l 10,0 0,10 -10,0 z M 260,0 l 10,0 0,10 -10,0 z M 270,0 l 10,0 0,10 -10,0 z M 280,0 l 10,0 0,10 -10,0 z M 0,10 l 10,0 0,10 -10,0 z M 60,10 l 10,0 0,10 -10,0 z M 80,10 l 10,0 0,10 -10,0 z M 100,10 l 10,0 0,10 -10,0 z M 130,10 l 10,0 0,10 -10,0 z M 140,10 l 10,0 0,10 -10,0 z M 150,10 l 10,0 0,10 -10,0 z M 160,10 l 10,0 0,10 -10,0 z M 170,10 l 10,0 0,10 -10,0 z M 200,10 l 10,0 0,10 -10,0 z M 220,10 l 10,0 0,10 -10,0 z M 280,10 l 10,0 0,10 -10,0 z M 0,20 l 10,0 0,10 -10,0 z M 20,20 l 10,0 0,10 -10,0 z M 30,20 l 10,0 0,10 -10,0 z M 40,20 l 10,0 0,10 -10,0 z M 60,20 l 10,0 0,10 -10,0 z M 120,20 l 10,0 0,10 -10,0 z M 130,20 l 10,0 0,10 -10,0 z M 150,20 l 10,0 0,10 -10,0 z M 180,20 l 10,0 0,10 -10,0 z M 200,20 l 10,0 0,10 -10,0 z M 220,20 l 10,0 0,10 -10,0 z M 240,20 l 10,0 0,10 -10,0 z M 250,20 l 10,0 0,10 -10,0 z M 260,20 l 10,0 0,10 -10,0 z M 280,20 l 10,0 0,10 -10,0 z M 0,30 l 10,0 0,10 -10,0 z M 20,30 l 10,0 0,10 -10,0 z M 30,30 l 10,0 0,10 -10,0 z M 40,30 l 10,0 0,10 -10,0 z M 60,30 l 10,0 0,10 -10,0 z M 80,30 l 10,0 0,10 -10,0 z M 90,30 l 10,0 0,10 -10,0 z M 100,30 l 10,0 0,10 -10,0 z M 120,30 l 10,0 0,10 -10,0 z M 140,30 l 10,0 0,10 -10,0 z M 150,30 l 10,0 0,10 -10,0 z M 170,30 l 10,0 0,10 -10,0 z M 220,30 l 10,0 0,10 -10,0 z M 240,30 l 10,0 0,10 -10,0 z M 250,30 l 10,0 0,10 -10,0 z M 260,30 l 10,0 0,10 -10,0 z M 280,30 l 10,0 0,10 -10,0 z M 0,40 l 10,0 0,10 -10,0 z M 20,40 l 10,0 0,10 -10,0 z M 30,40 l 10,0 0,10 -10,0 z M 40,40 l 10,0 0,10 -10,0 z M 60,40 l 10,0 0,10 -10,0 z M 90,40 l 10,0 0,10 -10,0 z M 150,40 l 10,0 0,10 -10,0 z M 160,40 l 10,0 0,10 -10,0 z M 170,40 l 10,0 0,10 -10,0 z M 180,40 l 10,0 0,10 -10,0 z M 190,40 l 10,0 0,10 -10,0 z M 200,40 l 10,0 0,10 -10,0 z M 220,40 l 10,0 0,10 -10,0 z M 240,40 l 10,0 0,10 -10,0 z M 250,40 l 10,0 0,10 -10,0 z M 260,40 l 10,0 0,10 -10,0 z M 280,40 l 10,0 0,10 -10,0 z M 0,50 l 10,0 0,10 -10,0 z M 60,50 l 10,0 0,10 -10,0 z M 80,50 l 10,0 0,10 -10,0 z M 90,50 l 10,0 0,10 -10,0 z M 110,50 l 10,0 0,10 -10,0 z M 120,50 l 10,0 0,10 -10,0 z M 220,50 l 10,0 0,10 -10,0 z M 280,50 l 10,0 0,10 -10,0 z M 0,60 l 10,0 0,10 -10,0 z M 10,60 l 10,0 0,10 -10,0 z M 20,60 l 10,0 0,10 -10,0 z M 30,60 l 10,0 0,10 -10,0 z M 40,60 l 10,0 0,10 -10,0 z M 50,60 l 10,0 0,10 -10,0 z M 60,60 l 10,0 0,10 -10,0 z M 80,60 l 10,0 0,10 -10,0 z M 100,60 l 10,0 0,10 -10,0 z M 120,60 l 10,0 0,10 -10,0 z M 140,60 l 10,0 0,10 -10,0 z M 160,60 l 10,0 0,10 -10,0 z M 180,60 l 10,0 0,10 -10,0 z M 200,60 l 10,0 0,10 -10,0 z M 220,60 l 10,0 0,10 -10,0 z M 230,60 l 10,0 0,10 -10,0 z M 240,60 l 10,0 0,10 -10,0 z M 250,60 l 10,0 0,10 -10,0 z M 260,60 l 10,0 0,10 -10,0 z M 270,60 l 10,0 0,10 -10,0 z M 280,60 l 10,0 0,10 -10,0 z M 90,70 l 10,0 0,10 -10,0 z M 100,70 l 10,0 0,10 -10,0 z M 110,70 l 10,0 0,10 -10,0 z M 140,70 l 10,0 0,10 -10,0 z M 160,70 l 10,0 0,10 -10,0 z M 180,70 l 10,0 0,10 -10,0 z M 200,70 l 10,0 0,10 -10,0 z M 0,80 l 10,0 0,10 -10,0 z M 10,80 l 10,0 0,10 -10,0 z M 20,80 l 10,0 0,10 -10,0 z M 30,80 l 10,0 0,10 -10,0 z M 40,80 l 10,0 0,10 -10,0 z M 60,80 l 10,0 0,10 -10,0 z M 70,80 l 10,0 0,10 -10,0 z M 80,80 l 10,0 0,10 -10,0 z M 90,80 l 10,0 0,10 -10,0 z M 110,80 l 10,0 0,10 -10,0 z M 170,80 l 10,0 0,10 -10,0 z M 200,80 l 10,0 0,10 -10,0 z M 210,80 l 10,0 0,10 -10,0 z M 230,80 l 10,0 0,10 -10,0 z M 250,80 l 10,0 0,10 -10,0 z M 270,80 l 10,0 0,10 -10,0 z M 0,90 l 10,0 0,10 -10,0 z M 10,90 l 10,0 0,10 -10,0 z M 20,90 l 10,0 0,10 -10,0 z M 40,90 l 10,0 0,10 -10,0 z M 50,90 l 10,0 0,10 -10,0 z M 70,90 l 10,0 0,10 -10,0 z M 100,90 l 10,0 0,10 -10,0 z M 120,90 l 10,0 0,10 -10,0 z M 130,90 l 10,0 0,10 -10,0 z M 140,90 l 10,0 0,10 -10,0 z M 150,90 l 10,0 0,10 -10,0 z M 170,90 l 10,0 0,10 -10,0 z M 180,90 l 10,0 0,10 -10,0 z M 190,90 l 10,0 0,10 -10,0 z M 200,90 l 10,0 0,10 -10,0 z M 220,90 l 10,0 0,10 -10,0 z M 230,90 l 10,0 0,10 -10,0 z M 240,90 l 10,0 0,10 -10,0 z M 280,90 l 10,0 0,10 -10,0 z M 0,100 l 10,0 0,10 -10,0 z M 10,100 l 10,0 0,10 -10,0 z M 30,100 l 10,0 0,10 -10,0 z M 40,100 l 10,0 0,10 -10,0 z M 50,100 l 10,0 0,10 -10,0 z M 60,100 l 10,0 0,10 -10,0 z M 70,100 l 10,0 0,10 -10,0 z M 100,100 l 10,0 0,10 -10,0 z M 130,100 l 10,0 0,10 -10,0 z M 140,100 l 10,0 0,10 -10,0 z M 150,100 l 10,0 0,10 -10,0 z M 170,100 l 10,0 0,10 -10,0 z M 200,100 l 10,0 0,10 -10,0 z M 210,100 l 10,0 0,10 -10,0 z M 230,100 l 10,0 0,10 -10,0 z M 240,100 l 10,0 0,10 -10,0 z M 20,110 l 10,0 0,10 -10,0 z M 30,110 l 10,0 0,10 -10,0 z M 50,110 l 10,0 0,10 -10,0 z M 120,110 l 10,0 0,10 -10,0 z M 130,110 l 10,0 0,10 -10,0 z M 220,110 l 10,0 0,10 -10,0 z M 250,110 l 10,0 0,10 -10,0 z M 270,110 l 10,0 0,10 -10,0 z M 0,120 l 10,0 0,10 -10,0 z M 10,120 l 10,0 0,10 -10,0 z M 20,120 l 10,0 0,10 -10,0 z M 30,120 l 10,0 0,10 -10,0 z M 50,120 l 10,0 0,10 -10,0 z M 60,120 l 10,0 0,10 -10,0 z M 90,120 l 10,0 0,10 -10,0 z M 100,120 l 10,0 0,10 -10,0 z M 120,120 l 10,0 0,10 -10,0 z M 140,120 l 10,0 0,10 -10,0 z M 150,120 l 10,0 0,10 -10,0 z M 160,120 l 10,0 0,10 -10,0 z M 170,120 l 10,0 0,10 -10,0 z M 190,120 l 10,0 0,10 -10,0 z M 200,120 l 10,0 0,10 -10,0 z M 250,120 l 10,0 0,10 -10,0 z M 260,120 l 10,0 0,10 -10,0 z M 0,130 l 10,0 0,10 -10,0 z M 20,130 l 10,0 0,10 -10,0 z M 70,130 l 10,0 0,10 -10,0 z M 90,130 l 10,0 0,10 -10,0 z M 160,130 l 10,0 0,10 -10,0 z M 190,130 l 10,0 0,10 -10,0 z M 200,130 l 10,0 0,10 -10,0 z M 210,130 l 10,0 0,10 -10,0 z M 220,130 l 10,0 0,10 -10,0 z M 230,130 l 10,0 0,10 -10,0 z M 240,130 l 10,0 0,10 -10,0 z M 280,130 l 10,0 0,10 -10,0 z M 10,140 l 10,0 0,10 -10,0 z M 40,140 l 10,0 0,10 -10,0 z M 60,140 l 10,0 0,10 -10,0 z M 70,140 l 10,0 0,10 -10,0 z M 80,140 l 10,0 0,10 -10,0 z M 90,140 l 10,0 0,10 -10,0 z M 100,140 l 10,0 0,10 -10,0 z M 110,140 l 10,0 0,10 -10,0 z M 120,140 l 10,0 0,10 -10,0 z M 150,140 l 10,0 0,10 -10,0 z M 160,140 l 10,0 0,10 -10,0 z M 170,140 l 10,0 0,10 -10,0 z M 210,140 l 10,0 0,10 -10,0 z M 220,140 l 10,0 0,10 -10,0 z M 240,140 l 10,0 0,10 -10,0 z M 250,140 l 10,0 0,10 -10,0 z M 260,140 l 10,0 0,10 -10,0 z M 0,150 l 10,0 0,10 -10,0 z M 10,150 l 10,0 0,10 -10,0 z M 30,150 l 10,0 0,10 -10,0 z M 100,150 l 10,0 0,10 -10,0 z M 110,150 l 10,0 0,10 -10,0 z M 140,150 l 10,0 0,10 -10,0 z M 150,150 l 10,0 0,10 -10,0 z M 190,150 l 10,0 0,10 -10,0 z M 210,150 l 10,0 0,10 -10,0 z M 230,150 l 10,0 0,10 -10,0 z M 240,150 l 10,0 0,10 -10,0 z M 270,150 l 10,0 0,10 -10,0 z M 10,160 l 10,0 0,10 -10,0 z M 40,160 l 10,0 0,10 -10,0 z M 50,160 l 10,0 0,10 -10,0 z M 60,160 l 10,0 0,10 -10,0 z M 70,160 l 10,0 0,10 -10,0 z M 110,160 l 10,0 0,10 -10,0 z M 150,160 l 10,0 0,10 -10,0 z M 160,160 l 10,0 0,10 -10,0 z M 170,160 l 10,0 0,10 -10,0 z M 250,160 l 10,0 0,10 -10,0 z M 260,160 l 10,0 0,10 -10,0 z M 0,170 l 10,0 0,10 -10,0 z M 50,170 l 10,0 0,10 -10,0 z M 90,170 l 10,0 0,10 -10,0 z M 100,170 l 10,0 0,10 -10,0 z M 120,170 l 10,0 0,10 -10,0 z M 130,170 l 10,0 0,10 -10,0 z M 140,170 l 10,0 0,10 -10,0 z M 160,170 l 10,0 0,10 -10,0 z M 190,170 l 10,0 0,10 -10,0 z M 200,170 l 10,0 0,10 -10,0 z M 210,170 l 10,0 0,10 -10,0 z M 220,170 l 10,0 0,10 -10,0 z M 230,170 l 10,0 0,10 -10,0 z M 240,170 l 10,0 0,10 -10,0 z M 260,170 l 10,0 0,10 -10,0 z M 280,170 l 10,0 0,10 -10,0 z M 0,180 l 10,0 0,10 -10,0 z M 30,180 l 10,0 0,10 -10,0 z M 40,180 l 10,0 0,10 -10,0 z M 60,180 l 10,0 0,10 -10,0 z M 80,180 l 10,0 0,10 -10,0 z M 90,180 l 10,0 0,10 -10,0 z M 100,180 l 10,0 0,10 -10,0 z M 130,180 l 10,0 0,10 -10,0 z M 140,180 l 10,0 0,10 -10,0 z M 150,180 l 10,0 0,10 -10,0 z M 160,180 l 10,0 0,10 -10,0 z M 170,180 l 10,0 0,10 -10,0 z M 180,180 l 10,0 0,10 -10,0 z M 260,180 l 10,0 0,10 -10,0 z M 0,190 l 10,0 0,10 -10,0 z M 20,190 l 10,0 0,10 -10,0 z M 30,190 l 10,0 0,10 -10,0 z M 50,190 l 10,0 0,10 -10,0 z M 70,190 l 10,0 0,10 -10,0 z M 80,190 l 10,0 0,10 -10,0 z M 90,190 l 10,0 0,10 -10,0 z M 100,190 l 10,0 0,10 -10,0 z M 120,190 l 10,0 0,10 -10,0 z M 130,190 l 10,0 0,10 -10,0 z M 160,190 l 10,0 0,10 -10,0 z M 190,190 l 10,0 0,10 -10,0 z M 200,190 l 10,0 0,10 -10,0 z M 230,190 l 10,0 0,10 -10,0 z M 270,190 l 10,0 0,10 -10,0 z M 0,200 l 10,0 0,10 -10,0 z M 50,200 l 10,0 0,10 -10,0 z M 60,200 l 10,0 0,10 -10,0 z M 80,200 l 10,0 0,10 -10,0 z M 90,200 l 10,0 0,10 -10,0 z M 120,200 l 10,0 0,10 -10,0 z M 140,200 l 10,0 0,10 -10,0 z M 170,200 l 10,0 0,10 -10,0 z M 180,200 l 10,0 0,10 -10,0 z M 190,200 l 10,0 0,10 -10,0 z M 200,200 l 10,0 0,10 -10,0 z M 210,200 l 10,0 0,10 -10,0 z M 220,200 l 10,0 0,10 -10,0 z M 230,200 l 10,0 0,10 -10,0 z M 240,200 l 10,0 0,10 -10,0 z M 260,200 l 10,0 0,10 -10,0 z M 270,200 l 10,0 0,10 -10,0 z M 280,200 l 10,0 0,10 -10,0 z M 80,210 l 10,0 0,10 -10,0 z M 170,210 l 10,0 0,10 -10,0 z M 180,210 l 10,0 0,10 -10,0 z M 200,210 l 10,0 0,10 -10,0 z M 240,210 l 10,0 0,10 -10,0 z M 250,210 l 10,0 0,10 -10,0 z M 260,210 l 10,0 0,10 -10,0 z M 270,210 l 10,0 0,10 -10,0 z M 280,210 l 10,0 0,10 -10,0 z M 0,220 l 10,0 0,10 -10,0 z M 10,220 l 10,0 0,10 -10,0 z M 20,220 l 10,0 0,10 -10,0 z M 30,220 l 10,0 0,10 -10,0 z M 40,220 l 10,0 0,10 -10,0 z M 50,220 l 10,0 0,10 -10,0 z M 60,220 l 10,0 0,10 -10,0 z M 80,220 l 10,0 0,10 -10,0 z M 110,220 l 10,0 0,10 -10,0 z M 120,220 l 10,0 0,10 -10,0 z M 150,220 l 10,0 0,10 -10,0 z M 160,220 l 10,0 0,10 -10,0 z M 170,220 l 10,0 0,10 -10,0 z M 190,220 l 10,0 0,10 -10,0 z M 200,220 l 10,0 0,10 -10,0 z M 220,220 l 10,0 0,10 -10,0 z M 240,220 l 10,0 0,10 -10,0 z M 250,220 l 10,0 0,10 -10,0 z M 260,220 l 10,0 0,10 -10,0 z M 0,230 l 10,0 0,10 -10,0 z M 60,230 l 10,0 0,10 -10,0 z M 100,230 l 10,0 0,10 -10,0 z M 110,230 l 10,0 0,10 -10,0 z M 140,230 l 10,0 0,10 -10,0 z M 150,230 l 10,0 0,10 -10,0 z M 160,230 l 10,0 0,10 -10,0 z M 180,230 l 10,0 0,10 -10,0 z M 200,230 l 10,0 0,10 -10,0 z M 240,230 l 10,0 0,10 -10,0 z M 270,230 l 10,0 0,10 -10,0 z M 280,230 l 10,0 0,10 -10,0 z M 0,240 l 10,0 0,10 -10,0 z M 20,240 l 10,0 0,10 -10,0 z M 30,240 l 10,0 0,10 -10,0 z M 40,240 l 10,0 0,10 -10,0 z M 60,240 l 10,0 0,10 -10,0 z M 80,240 l 10,0 0,10 -10,0 z M 90,240 l 10,0 0,10 -10,0 z M 100,240 l 10,0 0,10 -10,0 z M 110,240 l 10,0 0,10 -10,0 z M 170,240 l 10,0 0,10 -10,0 z M 200,240 l 10,0 0,10 -10,0 z M 210,240 l 10,0 0,10 -10,0 z M 220,240 l 10,0 0,10 -10,0 z M 230,240 l 10,0 0,10 -10,0 z M 240,240 l 10,0 0,10 -10,0 z M 260,240 l 10,0 0,10 -10,0 z M 270,240 l 10,0 0,10 -10,0 z M 0,250 l 10,0 0,10 -10,0 z M 20,250 l 10,0 0,10 -10,0 z M 30,250 l 10,0 0,10 -10,0 z M 40,250 l 10,0 0,10 -10,0 z M 60,250 l 10,0 0,10 -10,0 z M 80,250 l 10,0 0,10 -10,0 z M 90,250 l 10,0 0,10 -10,0 z M 100,250 l 10,0 0,10 -10,0 z M 120,250 l 10,0 0,10 -10,0 z M 130,250 l 10,0 0,10 -10,0 z M 140,250 l 10,0 0,10 -10,0 z M 160,250 l 10,0 0,10 -10,0 z M 180,250 l 10,0 0,10 -10,0 z M 190,250 l 10,0 0,10 -10,0 z M 250,250 l 10,0 0,10 -10,0 z M 260,250 l 10,0 0,10 -10,0 z M 270,250 l 10,0 0,10 -10,0 z M 280,250 l 10,0 0,10 -10,0 z M 0,260 l 10,0 0,10 -10,0 z M 20,260 l 10,0 0,10 -10,0 z M 30,260 l 10,0 0,10 -10,0 z M 40,260 l 10,0 0,10 -10,0 z M 60,260 l 10,0 0,10 -10,0 z M 80,260 l 10,0 0,10 -10,0 z M 90,260 l 10,0 0,10 -10,0 z M 130,260 l 10,0 0,10 -10,0 z M 140,260 l 10,0 0,10 -10,0 z M 150,260 l 10,0 0,10 -10,0 z M 160,260 l 10,0 0,10 -10,0 z M 170,260 l 10,0 0,10 -10,0 z M 180,260 l 10,0 0,10 -10,0 z M 190,260 l 10,0 0,10 -10,0 z M 210,260 l 10,0 0,10 -10,0 z M 220,260 l 10,0 0,10 -10,0 z M 230,260 l 10,0 0,10 -10,0 z M 240,260 l 10,0 0,10 -10,0 z M 250,260 l 10,0 0,10 -10,0 z M 260,260 l 10,0 0,10 -10,0 z M 270,260 l 10,0 0,10 -10,0 z M 0,270 l 10,0 0,10 -10,0 z M 60,270 l 10,0 0,10 -10,0 z M 80,270 l 10,0 0,10 -10,0 z M 120,270 l 10,0 0,10 -10,0 z M 130,270 l 10,0 0,10 -10,0 z M 160,270 l 10,0 0,10 -10,0 z M 190,270 l 10,0 0,10 -10,0 z M 200,270 l 10,0 0,10 -10,0 z M 210,270 l 10,0 0,10 -10,0 z M 220,270 l 10,0 0,10 -10,0 z M 230,270 l 10,0 0,10 -10,0 z M 240,270 l 10,0 0,10 -10,0 z M 250,270 l 10,0 0,10 -10,0 z M 270,270 l 10,0 0,10 -10,0 z M 0,280 l 10,0 0,10 -10,0 z M 10,280 l 10,0 0,10 -10,0 z M 20,280 l 10,0 0,10 -10,0 z M 30,280 l 10,0 0,10 -10,0 z M 40,280 l 10,0 0,10 -10,0 z M 50,280 l 10,0 0,10 -10,0 z M 60,280 l 10,0 0,10 -10,0 z M 80,280 l 10,0 0,10 -10,0 z M 90,280 l 10,0 0,10 -10,0 z M 100,280 l 10,0 0,10 -10,0 z M 120,280 l 10,0 0,10 -10,0 z M 140,280 l 10,0 0,10 -10,0 z M 170,280 l 10,0 0,10 -10,0 z M 190,280 l 10,0 0,10 -10,0 z M 210,280 l 10,0 0,10 -10,0 z M 240,280 l 10,0 0,10 -10,0 z M 260,280 l 10,0 0,10 -10,0 z " />
  </svg>

  <path d="M214 486 C264 530 344 530 394 486" class="accent" />
  <path d="M436 486 H646" class="signal-soft" />
  <path d="M436 518 H592" class="signal-soft" />
</svg>
